<?xml version="1.0" encoding="UTF-8" standalone="no"?>
<svg width="78px" height="67px" viewBox="0 0 78 67" version="1.1" xmlns="http://www.w3.org/2000/svg" xmlns:xlink="http://www.w3.org/1999/xlink">
    <!-- Generator: Sketch 39.1 (31720) - http://www.bohemiancoding.com/sketch -->
    <title>Group</title>
    <desc>Created with Sketch.</desc>
    <defs></defs>
    <g id="Page-1" stroke="none" stroke-width="1" fill="none" fill-rule="evenodd">
        <g id="Group" fill="#000000">
            <path d="M39.5000002,64.7421875 C59.0742189,55.5976562 85.1015618,52.75 75.8964836,34.5 C66.6914055,16.25 79.9804688,5.0990151e-15 39.5,0 C-0.98046875,-5.09901492e-15 -1.81054675,26.2070312 2.14062509,34.5 C6.09179692,42.7929687 19.9257814,73.8867188 39.5000002,64.7421875 Z M39.770493,40.4223239 C36.7269566,42.5341655 33.5799458,43.5900704 30.3293662,43.5900704 C28.6316112,43.5900704 27.0995139,43.3312702 25.7330282,42.813662 C24.3665425,42.2960537 23.1967654,41.5817651 22.223662,40.6707746 C21.2505585,39.7597842 20.5000379,38.6624712 19.9720775,37.3788028 C19.4441171,36.0951344 19.1801408,34.6976132 19.1801408,33.1861972 C19.1801408,29.8528002 20.1946377,26.9956457 22.223662,24.6146479 C23.4038087,23.2067535 24.842738,22.1353206 26.540493,21.4003169 C28.2382479,20.6653132 30.1016096,20.2978169 32.1306338,20.2978169 C36.8719251,20.2978169 40.2259761,22.1922346 42.1928873,25.9811268 L34.9878169,28.6519718 C34.2217567,27.6167554 33.1969078,27.0991549 31.9132394,27.0991549 C31.2092923,27.0991549 30.5622917,27.233731 29.9722183,27.5028873 C29.3821449,27.7720436 28.8800725,28.1550679 28.4659859,28.6519718 C28.0518993,29.1488757 27.725811,29.7389402 27.4877113,30.4221831 C27.2496115,31.105426 27.1305634,31.8507706 27.1305634,32.6582394 C27.1305634,34.0247251 27.5291157,35.1220381 28.3262324,35.9502113 C29.1233491,36.7783844 30.194782,37.1924648 31.5405634,37.1924648 C31.9132413,37.1924648 32.2962656,37.1614088 32.6896479,37.0992958 L33.0933803,34.9253521 L30.2051408,34.9253521 L31.136831,29.8942254 L41.6959859,29.8942254 L39.770493,40.4223239 Z M46.9755634,20.7947183 L61.6962676,20.7947183 L60.5782394,26.8196479 L53.9942958,26.8196479 L53.4973944,29.490493 L59.7707746,29.490493 L58.6838028,35.3290845 L52.4104225,35.3290845 L50.981831,43 L42.8761268,43 L46.9755634,20.7947183 Z" id="Combined-Shape"></path>
        </g>
    </g>
</svg>